<svg width="34" height="39" viewBox="0 0 34 39" fill="none" xmlns="http://www.w3.org/2000/svg">
<path d="M6.49871 12.8601H27.5014V29.7013C27.5014 30.7018 26.6771 31.5129 25.6615 31.5129H23.5578V36.6419C23.5578 37.9444 22.5021 39 21.1988 39C19.8922 39 18.838 37.9444 18.838 36.6419V31.5129H15.1639V36.6419C15.1639 37.9444 14.106 39 12.8028 39C11.4999 39 10.4421 37.9444 10.4421 36.6419V31.5129H8.34024C7.3245 31.5129 6.49863 30.7018 6.49863 29.7013L6.49871 12.8601ZM2.38292 12.7226C1.06639 12.7226 0 13.7883 0 15.1039V24.4102C0 25.7242 1.06639 26.7917 2.38292 26.7917C3.69967 26.7917 4.76583 25.7242 4.76583 24.4102V15.1039C4.76583 13.7883 3.69967 12.7226 2.38292 12.7226ZM27.5014 11.163H6.49871C6.75792 8.21872 8.69889 5.68502 11.493 4.21798L9.49614 1.33274C9.22685 0.94366 9.32845 0.412772 9.72463 0.147862C10.1204 -0.117048 10.6588 -0.016304 10.9294 0.372475L13.1058 3.51934C14.3125 3.10873 15.6224 2.87298 17 2.87298C18.3793 2.87298 19.6892 3.10873 20.8959 3.51987L23.0723 0.373619C23.3396 -0.0162277 23.8797 -0.116971 24.2754 0.147939C24.6716 0.412848 24.7732 0.943736 24.5039 1.33282L22.5087 4.21806C25.3027 5.68418 27.2424 8.21788 27.5014 11.163ZM13.732 7.16236C13.732 6.53096 13.2124 6.01885 12.571 6.01885C11.9279 6.01885 11.4083 6.53096 11.4083 7.16236C11.4083 7.79346 11.9296 8.30534 12.571 8.30534C13.2123 8.30534 13.732 7.79346 13.732 7.16236ZM22.739 7.16236C22.739 6.53096 22.2176 6.01885 21.5763 6.01885C20.9333 6.01885 20.4152 6.53096 20.4152 7.16236C20.4152 7.79346 20.9333 8.30534 21.5763 8.30534C22.2177 8.30534 22.739 7.79346 22.739 7.16236ZM31.6188 12.7194C30.3037 12.7194 29.2342 13.7866 29.2342 15.1023V24.4119C29.2342 25.7275 30.3037 26.7951 31.6188 26.7951C32.9356 26.7951 34 25.7276 34 24.4119V15.1023C34.0001 13.7866 32.9356 12.7194 31.6188 12.7194Z" fill="#0B0F3B"/>
</svg>
