<svg width="38" height="28" viewBox="0 0 38 28" fill="none" xmlns="http://www.w3.org/2000/svg">
<path d="M13.7408 0.0125744C13.7408 0.0125744 8.56584 0.368153 5.18149 3.08579C5.16561 3.09214 5.14656 3.10166 5.13069 3.11119C4.54335 3.65408 4.10205 4.49541 3.55599 5.70183C3.00992 6.90826 2.4321 8.46074 1.90508 10.1974C0.854222 13.6738 0.00019863 17.9407 0.00019863 21.9569C-0.00297598 22.0997 0.0319471 22.2394 0.101793 22.3632C1.28917 24.4491 3.47344 25.7095 5.51167 26.5032C7.5499 27.2969 9.43256 27.6144 10.3882 27.6461C10.658 27.6556 10.9152 27.5318 11.0739 27.3159L13.055 24.5729C14.6519 24.9507 16.5251 25.2079 18.6935 25.2079C20.8619 25.2079 22.735 24.9507 24.3319 24.5729L26.313 27.3159C26.4718 27.5318 26.7289 27.6556 26.9988 27.6461C27.9544 27.6144 29.8371 27.2969 31.8753 26.5032C33.9135 25.7095 36.0978 24.4491 37.2852 22.3632C37.355 22.2394 37.3899 22.0997 37.3868 21.9569C37.3868 17.9407 36.5327 13.6738 35.4819 10.1974C34.9549 8.46074 34.377 6.90826 33.831 5.70183C33.2849 4.49541 32.8436 3.65408 32.2563 3.11119C32.2404 3.10166 32.2213 3.09214 32.2055 3.08579C28.8211 0.368153 23.6462 0.0125744 23.6462 0.0125744C23.5859 0.0062252 23.5287 0.0062252 23.4684 0.0125744C23.1858 0.0506721 22.9477 0.234812 22.8334 0.495145C22.8334 0.495145 22.5572 1.10153 22.3763 1.96826C20.792 1.71427 19.4586 1.63808 18.6935 1.63808C17.9283 1.63808 16.5949 1.71427 15.0107 1.96826C14.8297 1.10153 14.5535 0.495145 14.5535 0.495145C14.4138 0.177665 14.0868 -0.0159987 13.7408 0.0125744ZM13.2328 1.76507C13.2931 1.93016 13.3344 2.08572 13.3852 2.27304C11.5533 2.69846 9.54685 3.39375 7.67054 4.5589C7.37528 4.68272 7.18162 4.96845 7.17209 5.28911C7.16574 5.60659 7.34671 5.90185 7.63244 6.04154C7.92135 6.17805 8.26423 6.13678 8.50869 5.93042C12.274 3.59693 17.0648 3.26358 18.6935 3.26358C20.3222 3.26358 25.1129 3.59693 28.8783 5.93042C29.1227 6.13678 29.4656 6.17805 29.7545 6.04154C30.0402 5.90185 30.2212 5.60659 30.2149 5.28911C30.2053 4.96845 30.0117 4.68272 29.7164 4.5589C27.8401 3.39375 25.8336 2.69846 24.0018 2.27304C24.0526 2.08572 24.0938 1.93016 24.1542 1.76507C25.0812 1.87936 28.6846 2.36511 31.1387 4.30492C31.2975 4.45096 31.8499 5.26371 32.3579 6.38759C32.8658 7.51148 33.3992 8.97506 33.9072 10.6545C34.8977 13.9309 35.6978 17.9725 35.7359 21.6775C34.812 23.1728 33.0785 24.284 31.2911 24.9793C29.6656 25.6111 28.1481 25.8936 27.3544 25.9698L25.9828 24.1157C26.6813 23.8903 27.3099 23.6459 27.8623 23.4046C29.9133 22.5029 31.0117 21.5505 31.0117 21.5505C31.3483 21.2489 31.3768 20.7314 31.0752 20.3949C30.7736 20.0583 30.2561 20.0298 29.9196 20.3314C29.9196 20.3314 29.0688 21.1092 27.202 21.9315C26.5162 22.2331 25.6844 22.5315 24.7383 22.795C24.5193 22.7696 24.3002 22.8331 24.1288 22.9728C22.6144 23.3411 20.8143 23.5824 18.6935 23.5824C16.5568 23.5824 14.7535 23.3189 13.2328 22.9474C13.0614 22.8331 12.8518 22.7855 12.6486 22.8204C11.6994 22.5569 10.8739 22.2331 10.185 21.9315C8.3182 21.1092 7.46735 20.3314 7.46735 20.3314C7.28321 20.1599 7.02923 20.0869 6.78159 20.1282C6.46729 20.1758 6.20695 20.4012 6.12123 20.7092C6.03234 21.0139 6.13393 21.3441 6.37522 21.5505C6.37522 21.5505 7.4737 22.5029 9.52463 23.4046C10.077 23.6459 10.7057 23.8903 11.4041 24.1157L10.0326 25.9698C9.2389 25.8936 7.72134 25.6111 6.09583 24.9793C4.30842 24.284 2.57497 23.1728 1.6511 21.6775C1.6892 17.9725 2.48925 13.9309 3.47979 10.6545C3.98776 8.97506 4.52113 7.51148 5.0291 6.38759C5.53707 5.26371 6.08948 4.45096 6.24822 4.30492C8.70235 2.36511 12.3058 1.87936 13.2328 1.76507ZM13.4106 11.3911C11.3374 11.3911 9.75321 13.2738 9.75321 15.4548C9.75321 17.6359 11.3374 19.5186 13.4106 19.5186C15.4837 19.5186 17.068 17.6359 17.068 15.4548C17.068 13.2738 15.4837 11.3911 13.4106 11.3911ZM23.9764 11.3911C21.9032 11.3911 20.319 13.2738 20.319 15.4548C20.319 17.6359 21.9032 19.5186 23.9764 19.5186C26.0495 19.5186 27.6337 17.6359 27.6337 15.4548C27.6337 13.2738 26.0495 11.3911 23.9764 11.3911ZM13.4106 13.0166C14.4805 13.0166 15.4425 14.0452 15.4425 15.4548C15.4425 16.8645 14.4805 17.8931 13.4106 17.8931C12.3407 17.8931 11.3787 16.8645 11.3787 15.4548C11.3787 14.0452 12.3407 13.0166 13.4106 13.0166ZM23.9764 13.0166C25.0463 13.0166 26.0082 14.0452 26.0082 15.4548C26.0082 16.8645 25.0463 17.8931 23.9764 17.8931C22.9065 17.8931 21.9445 16.8645 21.9445 15.4548C21.9445 14.0452 22.9065 13.0166 23.9764 13.0166Z" fill="#0B0F3B" fill-opacity="0.85"/>
</svg>
