<svg width="20" height="15" viewBox="0 0 20 15" fill="none" xmlns="http://www.w3.org/2000/svg">
<path d="M7.35057 0.00258436C7.35057 0.00258436 4.58226 0.195562 2.77182 1.67046C2.76332 1.67391 2.75313 1.67908 2.74464 1.68425C2.43045 1.97888 2.19438 2.43548 1.90226 3.09023C1.61014 3.74498 1.30104 4.58753 1.01912 5.53002C0.456963 7.41673 0.000106257 9.73246 0.000106257 11.9121C-0.00159199 11.9896 0.01709 12.0654 0.0544535 12.1326C0.689637 13.2646 1.8581 13.9487 2.94844 14.3794C4.03879 14.8102 5.04591 14.9825 5.55711 14.9997C5.70147 15.0049 5.83904 14.9377 5.92396 14.8205L6.98373 13.3318C7.838 13.5369 8.84003 13.6764 10 13.6764C11.16 13.6764 12.162 13.5369 13.0163 13.3318L14.076 14.8205C14.161 14.9377 14.2985 15.0049 14.4429 14.9997C14.9541 14.9825 15.9612 14.8102 17.0516 14.3794C18.1419 13.9487 19.3104 13.2646 19.9455 12.1326C19.9829 12.0654 20.0016 11.9896 19.9999 11.9121C19.9999 9.73246 19.543 7.41673 18.9809 5.53002C18.699 4.58753 18.3899 3.74498 18.0977 3.09023C17.8056 2.43548 17.5696 1.97888 17.2554 1.68425C17.2469 1.67908 17.2367 1.67391 17.2282 1.67046C15.4177 0.195562 12.6494 0.00258436 12.6494 0.00258436C12.6172 -0.000861453 12.5866 -0.000861453 12.5543 0.00258436C12.4032 0.0232606 12.2758 0.123196 12.2147 0.264483C12.2147 0.264483 12.0669 0.593579 11.9701 1.06396C11.1226 0.926121 10.4093 0.884769 10 0.884769C9.5907 0.884769 8.87739 0.926121 8.02991 1.06396C7.93311 0.593579 7.78535 0.264483 7.78535 0.264483C7.71062 0.0921812 7.53569 -0.0129227 7.35057 0.00258436ZM7.07884 0.95369C7.1111 1.04329 7.13318 1.12771 7.16036 1.22937C6.18041 1.46026 5.10705 1.8376 4.10332 2.46994C3.94538 2.53714 3.84178 2.69221 3.83668 2.86624C3.83329 3.03854 3.93009 3.19878 4.08294 3.27459C4.23749 3.34868 4.42092 3.32628 4.55169 3.21429C6.56593 1.94787 9.12875 1.76695 10 1.76695C10.8713 1.76695 13.4341 1.94787 15.4483 3.21429C15.5791 3.32628 15.7625 3.34868 15.9171 3.27459C16.0699 3.19878 16.1667 3.03854 16.1633 2.86624C16.1582 2.69221 16.0546 2.53714 15.8967 2.46994C14.893 1.8376 13.8196 1.46026 12.8396 1.22937C12.8668 1.12771 12.8889 1.04329 12.9212 0.95369C13.4171 1.01572 15.3447 1.27934 16.6575 2.3321C16.7425 2.41136 17.038 2.85245 17.3097 3.4624C17.5814 4.07235 17.8668 4.86666 18.1385 5.77814C18.6684 7.55629 19.0964 9.74969 19.1168 11.7605C18.6225 12.572 17.6952 13.175 16.7391 13.5524C15.8695 13.8953 15.0577 14.0486 14.6331 14.09L13.8994 13.0837C14.2731 12.9614 14.6093 12.8287 14.9048 12.6978C16.002 12.2084 16.5896 11.6915 16.5896 11.6915C16.7696 11.5278 16.7849 11.247 16.6236 11.0644C16.4622 10.8817 16.1854 10.8662 16.0054 11.0299C16.0054 11.0299 15.5502 11.452 14.5516 11.8983C14.1847 12.062 13.7398 12.2239 13.2337 12.367C13.1165 12.3532 12.9993 12.3876 12.9076 12.4634C12.0975 12.6633 11.1345 12.7943 10 12.7943C8.85701 12.7943 7.89235 12.6512 7.07884 12.4497C6.98712 12.3876 6.87503 12.3618 6.76634 12.3807C6.25853 12.2377 5.81696 12.062 5.44842 11.8983C4.44979 11.452 3.99463 11.0299 3.99463 11.0299C3.89612 10.9368 3.76026 10.8972 3.62779 10.9196C3.45965 10.9455 3.32038 11.0678 3.27453 11.2349C3.22697 11.4003 3.28132 11.5795 3.4104 11.6915C3.4104 11.6915 3.99803 12.2084 5.09516 12.6978C5.39067 12.8287 5.72695 12.9614 6.10058 13.0837L5.3669 14.09C4.94231 14.0486 4.1305 13.8953 3.26094 13.5524C2.30477 13.175 1.37747 12.572 0.883249 11.7605C0.903629 9.74969 1.33161 7.55629 1.8615 5.77814C2.13324 4.86666 2.41856 4.07235 2.6903 3.4624C2.96203 2.85245 3.25754 2.41136 3.34246 2.3321C4.65529 1.27934 6.58292 1.01572 7.07884 0.95369ZM7.17394 6.17788C6.06492 6.17788 5.21744 7.19963 5.21744 8.38334C5.21744 9.56705 6.06492 10.5888 7.17394 10.5888C8.28297 10.5888 9.13044 9.56705 9.13044 8.38334C9.13044 7.19963 8.28297 6.17788 7.17394 6.17788ZM12.8261 6.17788C11.717 6.17788 10.8696 7.19963 10.8696 8.38334C10.8696 9.56705 11.717 10.5888 12.8261 10.5888C13.9351 10.5888 14.7826 9.56705 14.7826 8.38334C14.7826 7.19963 13.9351 6.17788 12.8261 6.17788ZM7.17394 7.06006C7.74629 7.06006 8.26089 7.61832 8.26089 8.38334C8.26089 9.14836 7.74629 9.70661 7.17394 9.70661C6.6016 9.70661 6.087 9.14836 6.087 8.38334C6.087 7.61832 6.6016 7.06006 7.17394 7.06006ZM12.8261 7.06006C13.3984 7.06006 13.913 7.61832 13.913 8.38334C13.913 9.14836 13.3984 9.70661 12.8261 9.70661C12.2537 9.70661 11.7391 9.14836 11.7391 8.38334C11.7391 7.61832 12.2537 7.06006 12.8261 7.06006Z" fill="url(#paint0_linear_61_112)"/>
<defs>
<linearGradient id="paint0_linear_61_112" x1="10" y1="0" x2="10" y2="15" gradientUnits="userSpaceOnUse">
<stop stop-color="#1D89DD" stop-opacity="0.7"/>
<stop offset="1" stop-color="#1D89DD"/>
</linearGradient>
</defs>
</svg>
