<svg width="118" height="100" viewBox="0 0 118 100" fill="none" xmlns="http://www.w3.org/2000/svg">
<path d="M6.27158 94.561C12.16 98.1196 20.1156 100 29.2799 100C43.3185 100 58.7859 95.614 72.6762 87.9843L72.7735 88.0206C72.7735 88.0206 72.7875 87.9476 72.7949 87.9128C76.9996 85.5966 81.0737 83.0101 84.9005 80.1228C107.442 63.1181 113.755 42.9417 108.429 32.1568C114.259 22.2876 117.85 12.0849 118 -7.62939e-06C106.792 21.1633 100.064 38.3152 63.5411 67.1892C73.9766 64.9733 92.0135 54.4637 104.144 38.5154C105.289 47.8448 97.8492 62.9094 81.2779 75.4094C79.1797 76.9925 76.9977 78.4721 74.7706 79.8761C76.5107 74.5184 75.9561 75.851 79.5667 68.3388C74.2275 73.3457 70.7121 76.4354 65.4409 85.0163C58.5969 88.3473 51.4781 90.8369 44.4198 92.3415C45.5877 88.5052 47.8107 82.0037 50.8202 76.8637C50.8202 76.8637 43.182 78.486 36.8692 78.1195C40.3184 74.3488 43.4216 70.2698 46.5688 66.0997C50.8787 60.3909 55.3341 54.4873 61.0395 48.9925C61.7263 48.3308 62.3825 47.731 63.0484 47.1121C71.8155 47.9436 77.6064 44.6955 83.0318 38.9577C78.753 40.9343 73.0049 42.5621 69.4018 41.5824C76.0418 36.2169 86.4986 29.1444 95.0907 29.7266C96.72 27.2697 96.8231 27.1943 98.614 24.2263C84.6768 20.7889 67.1714 34.8203 56.8702 44.7453C50.8298 50.5659 46.2285 56.6586 41.7804 62.5488C32.6203 74.6821 24.7092 85.1585 7.16092 89.1454L6.82259e-06 90.7713L6.27158 94.561Z" fill="url(#paint0_linear_74_1041)"/>
<defs>
<linearGradient id="paint0_linear_74_1041" x1="59" y1="100" x2="59" y2="-2.47145e-06" gradientUnits="userSpaceOnUse">
<stop stop-color="#1D89DD"/>
<stop offset="1" stop-color="#1E8DE4" stop-opacity="0.5"/>
</linearGradient>
</defs>
</svg>
