<svg width="20" height="20" viewBox="0 0 20 20" fill="none" xmlns="http://www.w3.org/2000/svg">
<path d="M10 0C4.48319 0 0 4.48319 0 10C0 15.5168 4.48319 20 10 20C15.5168 20 20 15.5168 20 10C20 4.48319 15.5168 0 10 0ZM10 0.869565C15.0467 0.869565 19.1304 4.95333 19.1304 10C19.1304 10.031 19.1282 10.0616 19.1279 10.0926C18.8498 10.0669 18.5285 10.0425 18.1199 10.028C17.5422 10.0075 16.814 10.0135 15.9885 10.0543C16.0191 9.84115 16.0405 9.62495 16.0411 9.40302C16.0832 8.58884 15.8098 7.82716 15.3651 7.15438C15.4726 6.7832 15.5986 6.31096 15.6301 5.77531C15.666 5.16475 15.6133 4.48772 15.1231 4.03023L14.9975 3.91304H14.8259C13.6594 3.91304 12.8609 4.4014 12.3726 4.78855C11.6676 4.51566 10.8749 4.34783 10 4.34783C9.12016 4.34783 8.31979 4.51801 7.58577 4.79025C7.09779 4.40291 6.2986 3.91304 5.13077 3.91304H4.96009L4.83441 4.02938C4.35694 4.47275 4.31295 5.1312 4.34273 5.73879C4.369 6.27457 4.48771 6.7618 4.59324 7.15098C4.14108 7.8369 3.86974 8.61827 3.86974 9.39113C3.86974 9.61358 3.89042 9.83047 3.92069 10.0442C3.13557 10.0077 2.4357 10.0007 1.8801 10.0204C1.47153 10.0348 1.15019 10.059 0.872113 10.0849C0.871853 10.0565 0.869565 10.0285 0.869565 10C0.869565 4.95333 4.95333 0.869565 10 0.869565ZM5.38978 4.8395C6.26699 4.92263 6.92695 5.31434 7.23251 5.58594L7.43631 5.76596L7.68767 5.66321C8.37526 5.38009 9.14217 5.21739 10 5.21739C10.8578 5.21739 11.625 5.3809 12.2605 5.65897L12.5153 5.77106L12.7233 5.58594C13.029 5.31424 13.6901 4.92241 14.5678 4.8395C14.6845 5.03297 14.7859 5.30812 14.7614 5.72435C14.7321 6.22249 14.5988 6.76507 14.4981 7.0873L14.4327 7.29704L14.5627 7.47452C14.9929 8.06117 15.2122 8.69606 15.1749 9.36736L15.1741 9.37925V9.39113C15.1741 10.4761 14.7834 11.3445 13.9513 11.9879C13.1192 12.6314 11.8055 13.0435 9.95669 13.0435C8.10788 13.0435 6.7934 12.6314 5.96128 11.9879C5.12915 11.3445 4.7393 10.4761 4.7393 9.39113C4.7393 8.75431 4.96926 8.05374 5.39402 7.47452L5.5214 7.30129L5.46026 7.09494C5.35951 6.75238 5.23601 6.19744 5.21145 5.69633C5.19102 5.27954 5.28966 5.0161 5.38978 4.8395ZM2.99338 10.4441C3.30063 10.448 3.65281 10.4646 4.0056 10.4823C4.03931 10.6179 4.07775 10.7513 4.12449 10.8815C2.68651 10.9118 1.61075 11.0564 0.94769 11.1804C0.919655 10.9628 0.897325 10.7435 0.884851 10.5214C1.37487 10.4749 2.06565 10.4323 2.99338 10.4441ZM17.0066 10.4509C17.9337 10.4391 18.6242 10.4818 19.1143 10.5282C19.1018 10.7471 19.0799 10.9633 19.0523 11.1778C18.3656 11.0518 17.2607 10.9073 15.7855 10.884C15.8313 10.7564 15.8694 10.6253 15.9027 10.4925C16.2919 10.4717 16.6715 10.4552 17.0066 10.4509ZM4.30961 11.3128C4.56906 11.8328 4.93979 12.297 5.42969 12.6758C6.09949 13.1937 6.97027 13.5556 8.03329 13.7492C7.89422 13.892 7.76773 14.049 7.6554 14.2145L7.62908 14.1916C7.63147 14.1888 7.41293 14.2982 7.08645 14.3274C6.75996 14.3567 6.35722 14.3478 6.00034 14.3478C5.46773 14.3478 5.23313 14.0962 4.85819 13.6379C4.65056 13.3581 4.39744 13.1314 4.15166 12.9594C3.90001 12.7832 3.68533 12.6589 3.41967 12.6146L3.384 12.6087H3.34749C3.14459 12.6087 2.94825 12.6234 2.76495 12.8329C2.67329 12.9376 2.61012 13.1315 2.65115 13.2957C2.69219 13.4598 2.79602 13.5607 2.88893 13.6226C3.48315 14.0188 3.58817 14.8028 3.9606 15.5002C4.30839 16.1932 5.05898 16.5217 5.82626 16.5217H6.95652V18.6099C3.89905 17.5307 1.59334 14.8716 1.01393 11.6101C1.67954 11.4847 2.79415 11.334 4.30961 11.3128ZM15.6012 11.3162C17.1502 11.3295 18.2961 11.48 18.9869 11.6075C18.4083 14.8702 16.1018 17.5304 13.0435 18.6099V16.3477C13.0435 15.6587 12.8172 14.899 12.4236 14.2655C12.3041 14.0731 12.1635 13.8912 12.0066 13.7279C13.0132 13.5291 13.8402 13.1734 14.4837 12.6758C14.9725 12.2978 15.3424 11.835 15.6012 11.3162ZM9.43444 13.9564H10.6522C11.0056 13.9564 11.3828 14.238 11.6848 14.724C11.9868 15.21 12.1739 15.8627 12.1739 16.3477V18.8689C11.4771 19.0388 10.7495 19.1304 10 19.1304C9.25053 19.1304 8.52287 19.0388 7.82609 18.8689V16.3477C7.82609 15.8734 8.02949 15.2223 8.35173 14.7342C8.67397 14.2461 9.08104 13.9564 9.43444 13.9564ZM4.482 14.4701C4.85842 14.8605 5.31414 15.2174 6.00034 15.2174C6.33911 15.2174 6.76195 15.2296 7.16372 15.1936C7.16515 15.1935 7.16654 15.1929 7.16797 15.1928C7.11503 15.3449 7.07554 15.4981 7.04229 15.6522H5.82626C5.29002 15.6522 4.9112 15.4584 4.73675 15.1095L4.73336 15.1036L4.73081 15.0985C4.65933 14.9657 4.5655 14.7003 4.482 14.4701Z" fill="url(#paint0_linear_61_113)"/>
<defs>
<linearGradient id="paint0_linear_61_113" x1="10" y1="0" x2="10" y2="20" gradientUnits="userSpaceOnUse">
<stop stop-color="#1D89DD" stop-opacity="0.7"/>
<stop offset="1" stop-color="#1D89DD"/>
</linearGradient>
</defs>
</svg>
