<svg width="33" height="34" viewBox="0 0 33 34" fill="none" xmlns="http://www.w3.org/2000/svg">
<path d="M16.3699 0.327148C7.60266 0.327148 0.478027 7.77563 0.478027 16.9414C0.478027 26.1072 7.60266 33.5556 16.3699 33.5556C25.1372 33.5556 32.2618 26.1072 32.2618 16.9414C32.2618 7.77563 25.1372 0.327148 16.3699 0.327148ZM16.3699 1.77187C24.39 1.77187 30.8799 8.55674 30.8799 16.9414C30.8799 16.993 30.8763 17.0437 30.8759 17.0952C30.4339 17.0525 29.9233 17.012 29.274 16.988C28.3559 16.9539 27.1987 16.9638 25.8867 17.0317C25.9354 16.6775 25.9695 16.3183 25.9704 15.9496C26.0373 14.5969 25.6028 13.3314 24.8962 12.2136C25.0669 11.5969 25.2671 10.8123 25.3172 9.92239C25.3743 8.90799 25.2905 7.78317 24.5115 7.02308L24.3118 6.82838H24.0392C22.1853 6.82838 20.9164 7.63974 20.1405 8.28297C19.0201 7.82958 17.7603 7.55074 16.3699 7.55074C14.9717 7.55074 13.6998 7.83348 12.5332 8.28579C11.7578 7.64225 10.4877 6.82838 8.6318 6.82838H8.36055L8.16082 7.02166C7.40202 7.75828 7.33212 8.85225 7.37945 9.86172C7.42119 10.7519 7.60985 11.5614 7.77756 12.208C7.05899 13.3476 6.62777 14.6458 6.62777 15.9298C6.62777 16.2994 6.66064 16.6597 6.70874 17.0148C5.46105 16.9543 4.34881 16.9426 3.46585 16.9753C2.81656 16.9993 2.3059 17.0394 1.86398 17.0825C1.86357 17.0353 1.85993 16.9887 1.85993 16.9414C1.85993 8.55674 8.34981 1.77187 16.3699 1.77187ZM9.0434 8.36762C10.4375 8.50572 11.4863 9.15652 11.9718 9.60777L12.2957 9.90687L12.6952 9.73615C13.7879 9.26576 15.0067 8.99545 16.3699 8.99545C17.7332 8.99545 18.9523 9.26711 19.9623 9.7291L20.3672 9.91533L20.6978 9.60777C21.1836 9.15636 22.2342 8.50537 23.629 8.36762C23.8144 8.68906 23.9756 9.14619 23.9367 9.83773C23.8901 10.6654 23.6783 11.5668 23.5183 12.1022L23.4144 12.4506L23.6209 12.7455C24.3045 13.7202 24.6531 14.775 24.5939 15.8903L24.5925 15.9101V15.9298C24.5925 17.7324 23.9716 19.1752 22.6492 20.2442C21.3268 21.3133 19.2392 21.9979 16.3011 21.9979C13.363 21.9979 11.274 21.3133 9.95162 20.2442C8.62922 19.1752 8.00967 17.7324 8.00967 15.9298C8.00967 14.8718 8.37513 13.7078 9.05015 12.7455L9.25258 12.4577L9.15541 12.1149C8.9953 11.5457 8.79904 10.6237 8.76 9.79118C8.72754 9.09871 8.8843 8.66102 9.0434 8.36762ZM5.23507 17.6793C5.72336 17.6858 6.28303 17.7134 6.84369 17.7428C6.89726 17.968 6.95834 18.1896 7.03262 18.4059C4.7474 18.4563 3.03782 18.6965 1.98409 18.9025C1.93953 18.5411 1.90405 18.1766 1.88422 17.8077C2.66296 17.7304 3.76074 17.6596 5.23507 17.6793ZM27.5048 17.6906C28.9781 17.671 30.0755 17.7419 30.8543 17.819C30.8345 18.1826 30.7996 18.5419 30.7558 18.8983C29.6644 18.6889 27.9086 18.4487 25.5642 18.4101C25.6369 18.1981 25.6975 17.9803 25.7504 17.7597C26.3689 17.725 26.9723 17.6976 27.5048 17.6906ZM7.32682 19.1226C7.73914 19.9864 8.32829 20.7576 9.10683 21.387C10.1713 22.2475 11.5551 22.8487 13.2444 23.1703C13.0234 23.4077 12.8224 23.6684 12.6439 23.9435L12.6021 23.9054C12.6059 23.9008 12.2586 24.0825 11.7397 24.1311C11.2209 24.1797 10.5809 24.165 10.0137 24.165C9.16729 24.165 8.79447 23.7469 8.1986 22.9855C7.86864 22.5206 7.46638 22.1441 7.07581 21.8582C6.67588 21.5656 6.33471 21.359 5.91253 21.2854L5.85585 21.2756H5.79782C5.47537 21.2756 5.16336 21.3 4.87205 21.648C4.72639 21.822 4.626 22.1442 4.69121 22.4169C4.75643 22.6896 4.92144 22.8572 5.06908 22.9601C6.01342 23.6183 6.18031 24.9209 6.77217 26.0795C7.32487 27.2309 8.51771 27.7768 9.73705 27.7768H11.5333V31.2461C6.67435 29.453 3.01014 25.0351 2.08935 19.6164C3.14713 19.4081 4.91846 19.1577 7.32682 19.1226ZM25.2713 19.1282C27.733 19.1503 29.554 19.4004 30.6518 19.6122C29.7323 25.0329 26.0668 29.4526 21.2066 31.2461V27.4876C21.2066 26.3429 20.847 25.0807 20.2214 24.0281C20.0315 23.7086 19.8081 23.4063 19.5588 23.1351C21.1585 22.8047 22.4727 22.2138 23.4954 21.387C24.2722 20.759 24.8601 19.9901 25.2713 19.1282ZM15.4711 23.5146H17.4063C17.968 23.5146 18.5674 23.9825 19.0474 24.79C19.5273 25.5975 19.8247 26.6818 19.8247 27.4876V31.6764C18.7174 31.9587 17.561 32.1109 16.3699 32.1109C15.1789 32.1109 14.0225 31.9587 12.9152 31.6764V27.4876C12.9152 26.6996 13.2384 25.6179 13.7505 24.8069C14.2626 23.996 14.9095 23.5146 15.4711 23.5146ZM7.60077 24.3681C8.19898 25.0168 8.9232 25.6097 10.0137 25.6097C10.5521 25.6097 11.224 25.63 11.8625 25.5702C11.8648 25.57 11.867 25.569 11.8693 25.5688C11.7852 25.8216 11.7224 26.076 11.6696 26.3321H9.73705C8.88488 26.3321 8.28286 26.0102 8.00562 25.4305L8.00023 25.4206L7.99618 25.4122C7.88258 25.1916 7.73347 24.7505 7.60077 24.3681Z" fill="#0B0F3B" fill-opacity="0.85"/>
</svg>
