<svg width="32" height="38" viewBox="0 0 32 38" fill="none" xmlns="http://www.w3.org/2000/svg">
<path d="M14.6537 9.1C14.6225 9.19 14.4775 9.17625 14.395 9.2025C14.3212 9.24125 14.2612 9.30875 14.1762 9.30875C14.0987 9.30875 13.9737 9.2775 13.9637 9.2025C13.9487 9.1 14.1012 8.995 14.1975 8.995C14.26 8.965 14.3325 8.94875 14.4087 8.94875C14.4787 8.94875 14.545 8.9625 14.605 8.98875L14.6012 8.9875C14.6287 8.99875 14.6487 9.025 14.6487 9.05625C14.6487 9.06 14.6487 9.0625 14.6475 9.06625V9.0975H14.6525L14.6537 9.1ZM15.5137 9.1V9.06625C15.5037 9.035 15.5337 9.00126 15.5587 8.98875C15.6162 8.96375 15.6837 8.94875 15.755 8.94875C15.8312 8.94875 15.9037 8.96625 15.9675 8.99625L15.965 8.995C16.0637 8.995 16.215 9.1 16.1987 9.20625C16.19 9.2825 16.0662 9.30875 15.9875 9.30875C15.9012 9.30875 15.8437 9.24125 15.7675 9.2025C15.6862 9.17375 15.54 9.19 15.5125 9.10125L15.5137 9.1ZM17.2037 11.5725C16.5387 11.9938 15.7525 12.29 14.91 12.405L14.88 12.4088C14.1225 12.365 13.4337 12.0988 12.8712 11.6738L12.88 11.68C12.64 11.4713 12.4425 11.2613 12.2975 11.1563C12.0412 10.9475 12.0725 10.6363 12.1825 10.6363C12.3525 10.6613 12.3837 10.845 12.4937 10.9488C12.6437 11.0513 12.83 11.2613 13.0562 11.4688C13.5525 11.8788 14.18 12.145 14.8687 12.1975L14.88 12.1988C15.6975 12.1275 16.4412 11.865 17.0837 11.4588L17.0637 11.4713C17.3687 11.26 17.7587 10.95 18.0762 10.7413C18.32 10.5288 18.3087 10.3238 18.5125 10.3238C18.7125 10.3488 18.5662 10.5325 18.2825 10.8425C17.975 11.0775 17.6237 11.3188 17.26 11.5425L17.205 11.5738L17.2037 11.5725ZM6.02122 25.7463H6.03622C6.12247 25.7463 6.20747 25.755 6.28997 25.77L6.28122 25.7688C6.96122 25.9438 7.52122 26.3663 7.87247 26.9325L7.87872 26.9438L9.29997 29.5425L9.30497 29.5475C9.87622 30.5138 10.49 31.35 11.1762 32.1213L11.1625 32.105C11.775 32.755 12.1875 33.6 12.2987 34.5375L12.3012 34.5575V34.5675C12.2862 35.5888 11.535 36.4313 10.5562 36.5875L10.545 36.5887C10.295 36.6275 10.005 36.6488 9.71122 36.6488C8.63997 36.6488 7.63747 36.3575 6.77747 35.8488L6.80372 35.8638C5.48747 35.3125 3.95997 34.9713 2.35997 34.9238H2.34122C1.87622 34.8925 1.47122 34.655 1.21497 34.3038L1.21247 34.3C1.14497 34.0825 1.10622 33.8325 1.10622 33.5725C1.10622 33.135 1.21622 32.7238 1.41122 32.365L1.40497 32.3787V32.3725L1.40872 32.3675C1.45997 32.1325 1.48997 31.8613 1.48997 31.5838C1.48997 31.2413 1.44497 30.91 1.35997 30.595L1.36622 30.6213C1.31497 30.4338 1.28497 30.2175 1.28497 29.9938C1.28497 29.6913 1.33872 29.4025 1.43872 29.135L1.43372 29.1525C1.68372 28.6313 2.05247 28.5275 2.51122 28.32C3.05872 28.1538 3.53497 27.9025 3.94997 27.5788L3.93997 27.5863H3.94247V27.5825C4.34247 27.1638 4.63747 26.6438 4.98622 26.2738C5.22997 25.9625 5.60122 25.7613 6.01997 25.7488H6.02247L6.02122 25.7463ZM22.9137 25.67C22.9125 25.6913 22.9125 25.7175 22.9125 25.7438C22.9125 26.6725 23.4737 27.47 24.2762 27.8163L24.2912 27.8225C24.3512 27.8263 24.4212 27.8288 24.4912 27.8288C25.53 27.8288 26.46 27.365 27.085 26.6325L27.0887 26.6275L27.4187 26.6125C27.485 26.6025 27.5612 26.5975 27.6387 26.5975C28.065 26.5975 28.4537 26.7625 28.7425 27.0325L28.7412 27.0313L28.7462 27.0363C29.0575 27.4125 29.2737 27.8775 29.355 28.3888L29.3575 28.405C29.4262 29.0363 29.655 29.605 30.0037 30.08L29.9975 30.07C30.5175 30.515 30.8787 31.1325 30.9887 31.8338L30.9912 31.85L30.9962 31.8388V31.8663L30.9912 31.8475C30.9675 32.2563 30.7025 32.4663 30.2137 32.7775C28.7337 33.3988 27.4625 34.225 26.3675 35.2375L26.3762 35.23C25.6162 36.22 24.5 36.9038 23.2225 37.0875L23.1962 37.09C23.1037 37.1025 22.9962 37.11 22.8875 37.11C21.9275 37.11 21.1025 36.53 20.7425 35.7025L20.7362 35.6875L20.7287 35.6825C20.6125 35.325 20.5462 34.9137 20.5462 34.4875C20.5462 33.9675 20.645 33.4713 20.8262 33.015L20.8162 33.0425C21.1087 32.2075 21.36 31.21 21.5262 30.1825L21.54 30.0788C21.56 29.0638 21.67 28.0875 21.8625 27.1413L21.845 27.245C21.9512 26.5975 22.3212 26.0525 22.8375 25.7138L22.8462 25.7088L22.9162 25.675L22.9137 25.67ZM19.5 11.6775C20.25 14.3613 21.1737 16.68 22.3087 18.8738L22.21 18.665C22.9762 20.0275 23.5725 21.6088 23.9137 23.2838L23.9312 23.3888C23.9425 23.3888 23.9562 23.3888 23.97 23.3888C24.2412 23.3888 24.5037 23.425 24.7537 23.4938L24.7325 23.4888C24.87 22.995 24.9487 22.4288 24.9487 21.8438C24.9487 20.0613 24.215 18.4488 23.0325 17.295L23.0312 17.2938C22.6875 16.9813 22.6687 16.77 22.8387 16.77C24.0525 17.9075 24.95 19.3675 25.395 21.0125L25.41 21.0763C25.5212 21.4875 25.585 21.96 25.585 22.4475C25.585 22.8863 25.5337 23.3138 25.4362 23.7225L25.4437 23.685C25.5362 23.7325 25.6437 23.7688 25.7575 23.7888L25.765 23.79C27.3775 24.6238 27.9725 25.255 27.6862 26.1913V26.1238C27.5925 26.1188 27.4987 26.1238 27.405 26.1238H27.38C27.6162 25.3938 27.0962 24.835 25.7162 24.2113C24.2875 23.5863 23.145 23.6863 22.9512 24.9375C22.9375 24.9988 22.9275 25.07 22.9237 25.1438V25.1475C22.8325 25.185 22.7237 25.22 22.6112 25.245L22.5975 25.2475C21.9625 25.6675 21.51 26.3213 21.3612 27.0838L21.3587 27.1013C21.1737 27.97 21.0575 28.9763 21.0387 30.005V30.02V30.025C20.925 30.8213 20.7512 31.5338 20.5162 32.2163L20.5412 32.1338C19.3125 33.1388 17.7275 33.7463 15.9987 33.7463C14.5862 33.7463 13.2687 33.34 12.1575 32.6375L12.1875 32.655C12.005 32.3388 11.7962 32.065 11.5587 31.8213L11.56 31.8225C11.4387 31.6225 11.2962 31.4513 11.1325 31.3038L11.13 31.3025C11.3887 31.3025 11.6387 31.2638 11.875 31.1925L11.8562 31.1975C12.0812 31.0913 12.2537 30.9075 12.345 30.6825L12.3475 30.6763C12.37 30.56 12.3837 30.4275 12.3837 30.2913C12.3837 29.735 12.165 29.2313 11.8075 28.8588L11.8087 28.86C11.035 27.9088 10.11 27.1163 9.06372 26.51L9.01622 26.485C8.17747 26 7.54247 25.2413 7.22872 24.3325L7.21997 24.305C7.10372 23.9075 7.03622 23.45 7.03622 22.9775C7.03622 22.5363 7.09497 22.1088 7.20372 21.7013L7.19622 21.735C7.66747 20.0925 8.34747 18.6588 9.22122 17.365L9.18622 17.4188C9.35372 17.3175 9.24372 17.63 8.54872 18.94C7.95622 19.8313 7.60247 20.9275 7.60247 22.1063C7.60247 23.1563 7.88247 24.14 8.37247 24.9888L8.35747 24.9613C8.42247 23.325 8.78872 21.79 9.39997 20.3875L9.36872 20.4688C10.6875 18.0913 11.6862 15.33 12.2125 12.4038L12.2375 12.24C12.3125 12.2963 12.5762 12.4513 12.6887 12.555C13.0287 12.7625 13.2825 13.075 13.61 13.2813C13.9437 13.6063 14.4012 13.8063 14.9037 13.8063C14.93 13.8063 14.9562 13.8063 14.9825 13.805H14.9787C15.04 13.81 15.0962 13.815 15.15 13.815C15.7237 13.8038 16.2587 13.65 16.7237 13.3875L16.7075 13.3963C17.16 13.1875 17.52 12.875 17.8637 12.7713H17.8712C18.54 12.59 19.1 12.2038 19.4962 11.685L19.5012 11.6775H19.5ZM15.1262 8.33125C15.13 8.33125 15.1337 8.33125 15.1375 8.33125C15.8487 8.33125 16.505 8.565 17.0337 8.96L17.025 8.95375C17.4975 9.24625 18.0425 9.495 18.6187 9.67125L18.6687 9.68375H18.6737C18.9812 9.82125 19.235 10.035 19.4162 10.3013L19.42 10.3075V10.1025C19.4775 10.2175 19.5125 10.3538 19.5125 10.4975C19.5125 10.62 19.4875 10.7363 19.4437 10.8425L19.4462 10.8363C19.0862 11.47 18.5025 11.9413 17.805 12.1463L17.785 12.1513V12.1538C17.3662 12.365 17.0025 12.6738 16.575 12.88C16.1375 13.1425 15.6112 13.2975 15.0475 13.2975C15.0287 13.2975 15.01 13.2975 14.9912 13.2975H14.9937C14.9662 13.2988 14.9337 13.3 14.9012 13.3C14.6837 13.3 14.4737 13.2613 14.2812 13.1888L14.2937 13.1925C14.095 13.0838 13.9312 12.9813 13.7725 12.8713L13.79 12.8838C13.5062 12.635 13.1937 12.3963 12.8662 12.1775L12.8337 12.1575V12.15H12.8262C12.3575 11.9013 11.9887 11.52 11.7612 11.055L11.755 11.04C11.7212 10.9563 11.7025 10.8588 11.7025 10.7575C11.7025 10.485 11.8425 10.245 12.0537 10.105L12.0562 10.1038C12.4062 9.8925 12.65 9.68001 12.8112 9.57875C12.9737 9.46375 13.035 9.42 13.0862 9.37375H13.0887V9.36875C13.4237 8.945 13.8675 8.62 14.3787 8.43625L14.3987 8.43C14.6162 8.3675 14.8662 8.33125 15.125 8.32875L15.1262 8.33125ZM12.9862 5.66625H13.0425C13.2775 5.67126 13.4937 5.75 13.6687 5.87875L13.6662 5.87625C13.89 6.075 14.0725 6.31625 14.1975 6.58875L14.2025 6.6025C14.3437 6.90875 14.4312 7.265 14.4412 7.64V7.64375V7.65C14.4462 7.7075 14.4487 7.77375 14.4487 7.84C14.4487 7.91875 14.445 7.9975 14.4375 8.075L14.4387 8.065V8.19C14.3925 8.20125 14.3512 8.2175 14.3087 8.2275C14.07 8.32625 13.8687 8.43125 13.6775 8.55L13.695 8.54C13.705 8.47125 13.71 8.3925 13.71 8.3125C13.71 8.24625 13.7062 8.18 13.6987 8.115L13.7 8.1225V8.09875C13.6775 7.90625 13.6325 7.73 13.5662 7.56375L13.5712 7.5775C13.52 7.4125 13.43 7.2725 13.3125 7.16125C13.2437 7.09875 13.1525 7.06 13.0512 7.06C13.0425 7.06 13.0337 7.06 13.025 7.06125H13.0262H12.9937C12.865 7.075 12.7575 7.155 12.7037 7.265L12.7025 7.2675C12.6062 7.38375 12.54 7.5275 12.515 7.685V7.69C12.4862 7.7975 12.4712 7.92125 12.4712 8.04875C12.4712 8.10375 12.4737 8.15875 12.48 8.2125V8.20625V8.23C12.5 8.4225 12.545 8.6 12.61 8.765L12.605 8.75125C12.6575 8.91625 12.7462 9.0575 12.8637 9.17C12.8787 9.185 12.8962 9.1975 12.9162 9.20751H12.9175C12.8137 9.27376 12.7237 9.34375 12.6412 9.42125L12.6425 9.42C12.5862 9.47001 12.5175 9.5075 12.4412 9.525L12.4375 9.52625C12.2837 9.3425 12.1412 9.13625 12.0187 8.91875L12.0087 8.89875C11.8675 8.5925 11.78 8.2375 11.7662 7.86125V7.85625C11.7612 7.79625 11.7587 7.72625 11.7587 7.655C11.7587 7.35375 11.8075 7.06376 11.8962 6.7925L11.8912 6.8125C11.9837 6.49 12.135 6.21125 12.3362 5.97375L12.3337 5.9775C12.4925 5.79 12.725 5.67125 12.9862 5.665H12.9875L12.9862 5.66625ZM17.6137 5.57375H17.6337C17.635 5.57375 17.6362 5.57375 17.6387 5.57375C17.9825 5.57375 18.2975 5.69 18.55 5.885L18.5462 5.8825C18.8325 6.10375 19.0625 6.3825 19.2237 6.70125L19.23 6.715C19.3812 7.0475 19.475 7.43375 19.4887 7.84125V7.84625C19.4887 7.815 19.4975 7.78375 19.4975 7.7525V7.91625L19.4912 7.88375L19.485 7.84625C19.4812 8.24625 19.3962 8.62375 19.2437 8.9675L19.2512 8.95C19.1737 9.15375 19.0612 9.32875 18.9187 9.47375C18.8812 9.45125 18.835 9.43001 18.7887 9.41125L18.7812 9.40875C18.6125 9.35625 18.465 9.285 18.3312 9.1975L18.3375 9.20125C18.2412 9.16125 18.1262 9.12625 18.0075 9.1L17.9937 9.0975C18.095 9.0025 18.1887 8.90125 18.275 8.79375L18.28 8.7875C18.3587 8.6025 18.4075 8.38875 18.4175 8.16375V8.16V8.12875C18.4175 8.11875 18.4175 8.10875 18.4175 8.0975C18.4175 7.885 18.3825 7.68125 18.3175 7.49125L18.3212 7.505C18.2425 7.30625 18.1462 7.135 18.0312 6.97875L18.0362 6.985C17.9275 6.875 17.7837 6.8 17.6225 6.77875H17.6187H17.5937C17.5925 6.77875 17.59 6.77875 17.5887 6.77875C17.4237 6.77875 17.2762 6.86 17.1862 6.98375L17.185 6.985C17.04 7.12625 16.93 7.30125 16.8675 7.4975L16.865 7.50625C16.7862 7.69 16.735 7.90375 16.725 8.12625V8.13V8.16C16.7275 8.31 16.7387 8.455 16.7587 8.59625L16.7562 8.5775C16.455 8.4725 16.0725 8.36625 15.8075 8.2625C15.7925 8.17125 15.7825 8.06375 15.78 7.95375V7.95V7.91875C15.7787 7.89375 15.7787 7.865 15.7787 7.83625C15.7787 7.43125 15.865 7.0475 16.0212 6.70125L16.0137 6.71875C16.1462 6.37 16.38 6.08376 16.6787 5.89L16.685 5.88625C16.94 5.69125 17.2637 5.57375 17.6137 5.57375ZM16.7875 0.255005C16.545 0.255005 16.295 0.267505 16.0375 0.287505C9.43622 0.807505 11.1875 7.79625 11.0862 10.125C11.0237 11.9075 10.4187 13.5363 9.42997 14.865L9.44622 14.8425C7.68747 16.845 6.25247 19.185 5.25747 21.7463L5.20372 21.905C4.88122 22.7613 4.69372 23.75 4.69372 24.7825C4.69372 25.1388 4.71622 25.49 4.75872 25.8338L4.75497 25.7925C4.68497 25.85 4.62622 25.92 4.58497 26L4.58372 26.0038C4.17747 26.4225 3.88122 26.9413 3.54747 27.3138C3.19372 27.585 2.77872 27.7988 2.32872 27.9313L2.30247 27.9375C1.72247 28.1113 1.24997 28.49 0.958721 28.9888L0.952471 29C0.822471 29.265 0.746221 29.5763 0.746221 29.9063C0.746221 29.9188 0.746221 29.93 0.746221 29.9425C0.748721 30.24 0.778721 30.5275 0.837471 30.8075L0.832471 30.7788C0.902471 31.0525 0.942471 31.3675 0.942471 31.6913C0.942471 31.9038 0.924971 32.1125 0.891221 32.3163L0.893721 32.2938C0.684971 32.685 0.563721 33.15 0.563721 33.6438C0.563721 33.9913 0.623721 34.3238 0.734971 34.6325L0.728721 34.6125C1.06997 35.0975 1.58622 35.44 2.18372 35.5488L2.19747 35.5513C3.78997 35.685 5.26122 36.0175 6.64872 36.5263L6.53122 36.4888C7.40372 37.0075 8.45497 37.3138 9.57622 37.3138C9.94372 37.3138 10.3037 37.2812 10.6537 37.2175L10.6175 37.2225C11.4512 37.0338 12.1312 36.49 12.4975 35.7613L12.505 35.745C13.4225 35.74 14.4262 35.325 16.035 35.2238C17.1262 35.1338 18.4937 35.6413 20.06 35.5363C20.1062 35.735 20.1675 35.9088 20.245 36.0725L20.2375 36.0563L20.2425 36.0613C20.7225 37.0663 21.73 37.7488 22.8975 37.7488C22.9987 37.7488 23.0987 37.7438 23.1975 37.7337L23.185 37.735C24.6237 37.5225 25.8587 36.775 26.7012 35.7063L26.71 35.695C27.7637 34.735 28.9937 33.9438 30.3412 33.3788L30.425 33.3475C30.965 33.1088 31.3525 32.6163 31.4375 32.0238L31.4387 32.015C31.365 31.1475 30.9487 30.3913 30.3287 29.87L30.3237 29.8663V29.715L30.3187 29.71C30.0512 29.2975 29.8637 28.8075 29.7925 28.2825L29.79 28.2638C29.7237 27.6225 29.4425 27.0563 29.0212 26.63H29.0162C28.9237 26.5463 28.8237 26.525 28.7225 26.4188C28.64 26.36 28.5375 26.3238 28.4262 26.3188C28.67 25.5663 28.81 24.7013 28.81 23.8025C28.81 22.6275 28.5687 21.5088 28.1337 20.4938L28.155 20.5488C27.275 18.4588 26.1312 16.66 24.74 15.0875L24.7575 15.1088C23.3762 13.7563 22.4725 11.92 22.3225 9.875L22.3212 9.84875C22.3625 6.4875 22.69 0.268755 16.785 0.260005L16.7875 0.255005Z" fill="#0B0F3B"/>
</svg>
