<svg width="40" height="40" viewBox="0 0 40 40" fill="none" xmlns="http://www.w3.org/2000/svg">
<g clip-path="url(#clip0_84_20)">
<path d="M21.25 9.76252C21.7763 9.87159 22.3125 9.92604 22.85 9.92502C23.7773 9.92894 24.6963 9.74989 25.5542 9.39811C26.4122 9.04634 27.1924 8.52876 27.85 7.87503C28.6928 7.01571 29.3089 5.9604 29.6427 4.80398C29.9765 3.64756 30.0177 2.4263 29.7625 1.25002C29.7178 0.997862 29.5967 0.765522 29.4156 0.584433C29.2345 0.403345 29.0022 0.282248 28.75 0.237525C27.5758 -0.020832 26.3558 0.0163773 25.1995 0.345814C24.0432 0.67525 22.9868 1.28661 22.125 2.12502C21.2866 2.98677 20.6752 4.0432 20.3458 5.1995C20.0164 6.3558 19.9792 7.5758 20.2375 8.75002C20.2822 9.00219 20.4033 9.23453 20.5844 9.41562C20.7655 9.5967 20.9979 9.7178 21.25 9.76252ZM23.925 3.90002C24.3846 3.44556 24.9352 3.09362 25.5406 2.86739C26.1461 2.64116 26.7926 2.54578 27.4375 2.58752C27.4793 3.23249 27.3839 3.87899 27.1577 4.48442C26.9314 5.08985 26.5795 5.64048 26.125 6.10003C25.6624 6.54661 25.1097 6.88916 24.5039 7.10474C23.8981 7.32032 23.2533 7.40395 22.6125 7.35003C22.5779 6.7173 22.6744 6.08425 22.896 5.49057C23.1175 4.89689 23.4594 4.35539 23.9 3.90002H23.925Z" fill="#0B0F3B"/>
<path d="M35.1999 29.1C34.078 28.4949 33.1287 27.6138 32.4419 26.54C31.755 25.4661 31.3532 24.2349 31.2744 22.9626C31.1956 21.6903 31.4424 20.4189 31.9914 19.2684C32.5405 18.118 33.3737 17.1265 34.4124 16.3875C34.5514 16.2883 34.6685 16.1618 34.7567 16.0156C34.8448 15.8694 34.9021 15.7067 34.9249 15.5375C34.9496 15.3677 34.939 15.1945 34.8939 15.029C34.8487 14.8634 34.7699 14.7088 34.6624 14.575C33.1809 12.7755 31.2731 11.3747 29.1124 10.5C27.4437 9.83105 25.5812 9.83105 23.9124 10.5L21.6749 11.4C20.6031 11.8253 19.4093 11.8253 18.3374 11.4L16.0874 10.5C14.4187 9.83105 12.5562 9.83105 10.8874 10.5C7.6341 11.8176 5.00237 14.3212 3.52426 17.5048C2.04616 20.6885 1.83195 24.3145 2.92494 27.65L3.36244 28.7C4.5363 31.6147 6.11426 34.3498 8.04994 36.825C9.07563 38.3587 10.6258 39.4652 12.4094 39.937C14.1931 40.4088 16.0876 40.2134 17.7374 39.3875C18.4386 39.0318 19.2137 38.8463 19.9999 38.8463C20.7862 38.8463 21.5613 39.0318 22.2624 39.3875C23.8998 40.2055 25.778 40.4029 27.5496 39.9433C29.3213 39.4837 30.8666 38.3982 31.8999 36.8875C33.3847 34.9757 34.6666 32.9146 35.7249 30.7375C35.8636 30.4492 35.8864 30.1188 35.7888 29.8142C35.6911 29.5095 35.4804 29.254 35.1999 29.1ZM29.8749 35.4375C29.189 36.4657 28.1507 37.2074 26.9556 37.5229C25.7606 37.8383 24.4914 37.7057 23.3874 37.15C22.3334 36.6316 21.1745 36.362 19.9999 36.362C18.8253 36.362 17.6664 36.6316 16.6124 37.15C15.4929 37.7045 14.2089 37.8288 13.0038 37.4993C11.7988 37.1698 10.7566 36.4095 10.0749 35.3625C8.26637 33.0432 6.7858 30.4858 5.67494 27.7625L5.27494 26.7875C4.40118 24.0632 4.5909 21.1092 5.80597 18.519C7.02104 15.9289 9.17141 13.8946 11.8249 12.825C12.8901 12.3874 14.0848 12.3874 15.1499 12.825L17.3999 13.725C19.07 14.3876 20.9299 14.3876 22.5999 13.725L24.8499 12.825C25.9195 12.3881 27.1178 12.3881 28.1874 12.825C29.5832 13.3763 30.8572 14.1959 31.9374 15.2375C30.8627 16.2536 30.0267 17.4955 29.4898 18.8737C28.9528 20.2518 28.7283 21.7319 28.8323 23.2073C28.9363 24.6827 29.3663 26.1166 30.0913 27.4058C30.8163 28.695 31.8183 29.8073 33.0249 30.6625C32.1086 32.3384 31.055 33.9356 29.8749 35.4375Z" fill="#0B0F3B"/>
</g>
<defs>
<clipPath id="clip0_84_20">
<rect width="40" height="40" fill="white"/>
</clipPath>
</defs>
</svg>
