<svg width="99" height="120" viewBox="0 0 99 120" fill="none" xmlns="http://www.w3.org/2000/svg">
<path d="M92.7268 43.6364H27.2722V30C27.2722 24.9368 29.2836 20.0809 32.8638 16.5007C36.4441 12.9205 41.2999 10.9091 46.3632 10.9091H51.8177C56.9419 10.9386 61.8455 12.9981 65.4541 16.6364C66.2008 17.441 67.173 18.0017 68.2434 18.245C69.3139 18.4883 70.4329 18.4029 71.4541 18H71.7268C72.5113 17.6694 73.2022 17.1506 73.7386 16.4895C74.2749 15.8284 74.6401 15.0453 74.8019 14.2095C74.9636 13.3738 74.917 12.511 74.666 11.6975C74.4151 10.884 73.9676 10.1449 73.3632 9.54545C70.6121 6.56985 67.2818 4.18814 63.5767 2.54664C59.8716 0.905135 55.87 0.0385092 51.8177 0H46.3632C38.4067 0 30.776 3.16071 25.1499 8.7868C19.5239 14.4129 16.3631 22.0435 16.3631 30V43.6364H5.45406C4.00742 43.6364 2.62004 44.211 1.59711 45.234C0.574185 46.2569 -0.000488281 47.6443 -0.000488281 49.0909V114.545C-0.000488281 115.992 0.574185 117.379 1.59711 118.402C2.62004 119.425 4.00742 120 5.45406 120H92.7268C94.1734 120 95.5608 119.425 96.5837 118.402C97.6067 117.379 98.1813 115.992 98.1813 114.545V49.0909C98.1813 47.6443 97.6067 46.2569 96.5837 45.234C95.5608 44.211 94.1734 43.6364 92.7268 43.6364ZM87.2722 109.091H10.9086V54.5455H87.2722V109.091Z" fill="url(#paint0_linear_74_1054)"/>
<path d="M22.5449 103.636C21.4423 103.624 20.3693 103.277 19.4676 102.643C18.5658 102.008 17.8776 101.115 17.4937 100.081C17.1097 99.0476 17.0481 97.9218 17.3169 96.8523C17.5857 95.7829 18.1724 94.8201 18.9994 94.0908L33.454 81.8181L18.9994 69.5453C18.108 68.557 17.6087 67.2769 17.5955 65.946C17.5823 64.6151 18.0561 63.3254 18.9278 62.3196C19.7995 61.3138 21.0088 60.6614 22.328 60.4853C23.6473 60.3092 24.9854 60.6216 26.0904 61.3635L45.1813 77.7271C45.7617 78.239 46.2265 78.8685 46.5449 79.5738C46.8633 80.2792 47.028 81.0442 47.028 81.8181C47.028 82.5919 46.8633 83.3569 46.5449 84.0623C46.2265 84.7676 45.7617 85.3971 45.1813 85.909L26.0904 102.273C25.1238 103.16 23.8567 103.647 22.5449 103.636Z" fill="url(#paint1_linear_74_1054)"/>
<path d="M71.6356 98.1818H55.2719C53.8253 98.1818 52.4379 97.6071 51.415 96.5842C50.3921 95.5613 49.8174 94.1739 49.8174 92.7273C49.8174 91.2806 50.3921 89.8932 51.415 88.8703C52.4379 87.8474 53.8253 87.2727 55.2719 87.2727H71.6356C73.0822 87.2727 74.4696 87.8474 75.4925 88.8703C76.5154 89.8932 77.0901 91.2806 77.0901 92.7273C77.0901 94.1739 76.5154 95.5613 75.4925 96.5842C74.4696 97.6071 73.0822 98.1818 71.6356 98.1818Z" fill="url(#paint2_linear_74_1054)"/>
<defs>
<linearGradient id="paint0_linear_74_1054" x1="49.0904" y1="0" x2="49.0904" y2="120" gradientUnits="userSpaceOnUse">
<stop stop-color="#1E8DE4" stop-opacity="0.5"/>
<stop offset="1" stop-color="#1D89DD"/>
</linearGradient>
<linearGradient id="paint1_linear_74_1054" x1="32.0902" y1="60.4374" x2="32.0902" y2="103.636" gradientUnits="userSpaceOnUse">
<stop stop-color="#1E8DE4" stop-opacity="0.5"/>
<stop offset="1" stop-color="#1D89DD"/>
</linearGradient>
<linearGradient id="paint2_linear_74_1054" x1="63.4537" y1="87.2727" x2="63.4537" y2="98.1818" gradientUnits="userSpaceOnUse">
<stop stop-color="#1E8DE4" stop-opacity="0.5"/>
<stop offset="1" stop-color="#1D89DD"/>
</linearGradient>
</defs>
</svg>
