<svg width="108" height="120" viewBox="0 0 108 120" fill="none" xmlns="http://www.w3.org/2000/svg">
<path fill-rule="evenodd" clip-rule="evenodd" d="M35.8529 4.47137C43.8499 1.71114 48.8079 0 54.0002 0C59.1926 0 64.1506 1.71114 72.1476 4.47137L76.1762 5.86119C84.3809 8.69135 90.7125 10.8755 95.2452 12.7311C97.5281 13.6658 99.491 14.5712 101.072 15.4962C102.593 16.3864 104.119 17.4968 105.156 18.9853C106.18 20.4567 106.71 22.2655 107.043 24.0068C107.389 25.8171 107.598 27.9887 107.733 30.482C108 35.4329 108 42.2155 108 51.0128V59.952C108 94.0041 82.479 110.33 67.302 117.012L67.1519 117.078C65.2699 117.906 63.5009 118.685 61.4683 119.21C59.3222 119.763 57.0425 120 54.0002 120C50.958 120 48.6783 119.763 46.5322 119.21C44.4996 118.685 42.7308 117.906 40.8488 117.078L40.6987 117.012C25.5216 110.33 0.000244141 94.0041 0.000244141 59.952V51.0134C0.000244141 42.2164 0.00024429 35.4327 0.267752 30.482C0.402447 27.9887 0.611192 25.8171 0.957346 24.0068C1.29032 22.2655 1.82018 20.4567 2.84496 18.9853C3.88171 17.4968 5.40767 16.3864 6.92875 15.4962C8.50937 14.5712 10.4723 13.6658 12.7555 12.7311C17.288 10.8755 23.6197 8.69135 31.824 5.86125L35.8529 4.47137ZM49.8464 8.86281C47.091 9.46627 43.5614 10.6613 37.8314 12.638L34.6588 13.7323C26.2814 16.6222 20.1719 18.7314 15.8823 20.4876C13.7412 21.3641 12.1898 22.0987 11.1009 22.736C10.5633 23.0506 10.1929 23.3103 9.94549 23.5129C9.73575 23.6847 9.65578 23.782 9.64431 23.7962C9.63362 23.8138 9.56478 23.9297 9.46786 24.2039C9.35714 24.5171 9.23447 24.9661 9.11495 25.591C8.87308 26.8559 8.68976 28.5935 8.56315 30.9372C8.33413 35.1754 8.3106 40.9283 8.30821 48.6107L49.8464 34.6573V8.86281ZM58.1541 8.86281V34.6573L99.6926 48.6107C99.6898 40.9283 99.6665 35.1754 99.4372 30.9372C99.311 28.5935 99.1276 26.8559 98.8856 25.591C98.766 24.9661 98.6436 24.5171 98.5328 24.2039C98.4359 23.9295 98.3666 23.8136 98.3561 23.7962C98.3445 23.7819 98.2647 23.6846 98.0548 23.5129C97.8078 23.3103 97.4373 23.0506 96.8995 22.736C95.8107 22.0987 94.2593 21.3641 92.1182 20.4876C87.8286 18.7314 81.7191 16.6222 73.3417 13.7323L70.1692 12.638C64.4391 10.6613 60.9095 9.46627 58.1541 8.86281ZM49.8464 43.4823L8.30794 57.4359V59.952C8.30794 88.8363 29.7412 103.052 44.0244 109.34C46.0819 110.245 47.2699 110.758 48.5925 111.099C48.9774 111.198 49.3878 111.286 49.8464 111.361V43.4823ZM58.1541 111.361V43.4823L99.6926 57.4359V59.952C99.6926 88.8363 78.2593 103.052 63.9761 109.34C61.9186 110.245 60.7306 110.758 59.408 111.099C59.0231 111.198 58.6127 111.286 58.1541 111.361Z" fill="url(#paint0_linear_74_1038)"/>
<defs>
<linearGradient id="paint0_linear_74_1038" x1="54.0002" y1="0" x2="54.0002" y2="120" gradientUnits="userSpaceOnUse">
<stop stop-color="#1E8DE4" stop-opacity="0.5"/>
<stop offset="1" stop-color="#1D89DD"/>
</linearGradient>
</defs>
</svg>
