<svg width="115" height="76" viewBox="0 0 115 76" fill="none" xmlns="http://www.w3.org/2000/svg">
<path d="M57.4995 0C49.9485 0 42.4714 1.47759 35.4952 4.34842C28.519 7.21925 22.1802 11.4271 16.8409 16.7317C11.5015 22.0363 7.26608 28.3337 4.37644 35.2645C1.48679 42.1953 -0.000488533 49.6237 -0.000488281 57.1255C0.0234203 63.5569 1.14033 69.9381 3.30314 76C2.38529 72.1894 1.91113 68.2866 1.88997 64.3685C1.89054 50.8011 7.31572 37.7897 16.9722 28.1961C26.6286 18.6026 39.7254 13.2127 53.3817 13.2121C63.5932 13.2221 73.5712 16.2481 82.0474 21.9056L92.3046 11.7152C82.3051 4.13291 70.0787 0.017585 57.4995 0ZM101.336 17.1544C100.13 17.1745 98.9048 17.6413 97.8918 18.4933L53.8402 55.5356C51.8144 57.2396 47.0545 62.2571 53.8307 68.9895C60.6083 75.7229 65.6569 70.9832 67.3727 68.9709L104.667 25.2249C106.383 23.2124 106.544 20.3581 104.667 18.4933C103.729 17.5609 102.542 17.1343 101.336 17.1544ZM110.198 34.3274L100.512 43.9506C103.297 50.25 104.774 57.0426 104.855 63.9222H114.513C114.811 61.6683 114.974 59.3987 115 57.1255C114.992 49.2792 113.358 41.5185 110.198 34.3274Z" fill="url(#paint0_linear_74_1062)"/>
<defs>
<linearGradient id="paint0_linear_74_1062" x1="57.4995" y1="0" x2="57.4995" y2="76" gradientUnits="userSpaceOnUse">
<stop stop-color="#1E8DE4" stop-opacity="0.5"/>
<stop offset="1" stop-color="#1D89DD"/>
</linearGradient>
</defs>
</svg>
