<svg width="20" height="20" viewBox="0 0 20 20" fill="none" xmlns="http://www.w3.org/2000/svg">
<path d="M17.7667 3.7169V3.68972H17.7473C16.8115 2.53713 15.6303 1.60782 14.2898 0.969522C12.9493 0.331219 11.4833 0 9.99854 0C8.51381 0 7.04778 0.331219 5.70728 0.969522C4.36679 1.60782 3.1856 2.53713 2.24979 3.68972H2.23134V3.7169C0.787931 5.49285 0 7.71154 0 10C0 12.2885 0.787931 14.5072 2.23134 16.2831V16.3103H2.25076C3.18657 17.4629 4.36776 18.3922 5.70825 19.0305C7.04875 19.6688 8.51478 20 9.99951 20C11.4842 20 12.9503 19.6688 14.2908 19.0305C15.6313 18.3922 16.8125 17.4629 17.7483 16.3103H17.7687V16.2831C19.2121 14.5072 20 12.2885 20 10C20 7.71154 19.2121 5.49285 17.7687 3.7169H17.7667ZM10.484 3.68972V1.04134C11.0593 1.28277 11.5767 1.64375 12.0019 2.10035C12.427 2.55694 12.7503 3.09871 12.9501 3.68972H10.484ZM13.3336 4.66053C13.8533 6.22741 14.1326 7.86402 14.1618 9.51459H10.484V4.66053H13.3336ZM9.51309 1.04134V3.68972H7.04701C7.24683 3.09871 7.57005 2.55694 7.99522 2.10035C8.42038 1.64375 8.93778 1.28277 9.51309 1.04134ZM9.51309 4.66053V9.51459H5.83532C5.86451 7.86402 6.14374 6.22741 6.6635 4.66053H9.51309ZM4.86539 9.51459H0.994412C1.08642 7.76111 1.6914 6.07325 2.73427 4.66053H5.63143C5.14776 6.2342 4.89049 7.86847 4.86539 9.51459ZM4.86539 10.4854C4.89018 12.1315 5.14809 13.7657 5.63143 15.3395H2.73427C1.6914 13.9267 1.08642 12.2389 0.994412 10.4854H4.86539ZM5.83629 10.4854H9.51309V15.3395H6.6635C6.14374 13.7726 5.86451 12.136 5.83532 10.4854H5.83629ZM9.51309 16.3103V18.9587C8.93778 18.7172 8.42038 18.3562 7.99522 17.8997C7.57005 17.4431 7.24683 16.9013 7.04701 16.3103H9.51309ZM10.484 18.9587V16.3103H12.9501C12.7503 16.9013 12.427 17.4431 12.0019 17.8997C11.5767 18.3562 11.0593 18.7172 10.484 18.9587ZM10.484 15.3395V10.4854H14.1618C14.1326 12.136 13.8533 13.7726 13.3336 15.3395H10.484ZM15.1317 10.4854H19.0027C18.9107 12.2389 18.3057 13.9267 17.2628 15.3395H14.3657C14.8493 13.7658 15.1066 12.1315 15.1317 10.4854ZM15.1317 9.51459C15.1069 7.86852 14.849 6.23425 14.3657 4.66053H17.2628C18.3057 6.07325 18.9107 7.76111 19.0027 9.51459H15.1317ZM16.4444 3.68972H14.0161C13.6812 2.84196 13.2085 2.05537 12.6171 1.36171C14.068 1.80415 15.3843 2.60476 16.4444 3.68972ZM7.38002 1.36171C6.78897 2.05544 6.31658 2.84203 5.98193 3.68972H3.55176C4.61185 2.60476 5.92807 1.80415 7.37905 1.36171H7.38002ZM3.55273 16.3103H5.98096C6.3159 17.158 6.78863 17.9446 7.38002 18.6383C5.92904 18.1959 4.61282 17.3952 3.55273 16.3103ZM12.6171 18.6383C13.2081 17.9446 13.6805 17.158 14.0152 16.3103H16.4444C15.3843 17.3952 14.068 18.1959 12.6171 18.6383Z" fill="url(#paint0_linear_62_116)"/>
<defs>
<linearGradient id="paint0_linear_62_116" x1="10" y1="0" x2="10" y2="20" gradientUnits="userSpaceOnUse">
<stop stop-color="#1D89DD" stop-opacity="0.7"/>
<stop offset="1" stop-color="#1D89DD"/>
</linearGradient>
</defs>
</svg>
