<svg width="40" height="40" viewBox="0 0 40 40" fill="none" xmlns="http://www.w3.org/2000/svg">
<path fill-rule="evenodd" clip-rule="evenodd" d="M18.2917 20.8682C18.3018 24.866 18.3138 31.6584 18.3238 36.9375C25.5519 37.915 32.7799 38.9226 39.996 40C39.996 33.6975 40.004 27.4225 39.996 21.4258C32.7619 21.4258 25.5298 20.8682 18.2917 20.8682ZM0 20.8701V34.4434C5.45163 35.179 10.9033 35.882 16.3449 36.6855C16.3549 31.4344 16.3409 26.1818 16.3409 20.9307C10.8932 20.9407 5.44762 20.8521 0 20.8701ZM0 5.68652V19.2217C5.45163 19.2357 10.9033 19.1532 16.3549 19.1592C16.3509 13.9201 16.3509 8.68736 16.3449 3.44824C10.8892 4.12986 5.43358 4.85098 0 5.68652ZM40 18.9434C32.7759 18.9713 25.5519 19.0815 18.3238 19.1035C18.3198 13.7784 18.3198 8.45973 18.3238 3.13867C25.5378 2.03727 32.7679 1.00144 39.996 0C40 6.31652 39.996 12.6268 40 18.9434Z" fill="#0B0F3B"/>
</svg>
