<svg width="39" height="29" viewBox="0 0 39 29" fill="none" xmlns="http://www.w3.org/2000/svg">
<path d="M19.2914 0C13.3409 0 7.75317 0.441441 4.77795 1.05877C2.79565 1.50021 1.08094 2.82454 0.721797 4.85586C0.362656 6.9734 0 10.1532 0 14.1261C0 18.0991 0.359141 21.1892 0.809825 23.3964C1.17248 25.3381 2.88367 26.752 4.86598 27.1935C8.02429 27.8108 13.429 28.2523 19.3794 28.2523C25.3298 28.2523 30.7345 27.8108 33.8893 27.1935C35.8752 26.752 37.5863 25.4277 37.9455 23.3964C38.3081 21.1892 38.7588 18.0129 38.8468 14.0399C38.8468 10.0669 38.3962 6.88718 37.9455 4.67997C37.5863 2.73831 35.8752 1.32432 33.8893 0.882883C30.7345 0.441441 25.2383 0 19.2914 0ZM19.2914 1.76577C25.7805 1.76577 31.0056 2.29343 33.5302 2.73487C34.8822 3.09009 35.9632 3.97297 36.1427 5.12142C36.685 7.94595 37.0441 10.9498 37.0441 14.0399C36.9561 17.8336 36.5054 20.9236 36.1427 23.1309C35.8752 24.807 34.0724 25.3381 33.5302 25.5174C30.2839 26.1347 24.8756 26.5727 19.4674 26.5727C14.0592 26.5727 8.56299 26.2209 5.40821 25.5174C4.05616 25.1622 2.97522 24.2793 2.79565 23.1309C2.07385 20.6581 1.80274 17.3921 1.80274 14.1261C1.80274 10.0635 2.16539 7.06308 2.52453 5.21109C2.79565 3.53155 4.68641 3.00043 5.13709 2.82455C8.11231 2.20722 13.6121 1.76577 19.2914 1.76577ZM14.4219 7.06306V21.1892L27.041 14.1261L14.4219 7.06306ZM16.2246 10.0669L23.4356 14.1261L16.2246 18.1853V10.0669Z" fill="#0B0F3B" fill-opacity="0.85"/>
</svg>
